<svg width="82" height="110" viewBox="0 0 82 110" fill="none" xmlns="http://www.w3.org/2000/svg">
<path d="M23.32 69.28C24.184 64.576 25.96 60.688 28.648 57.616C31.432 54.544 35.176 51.28 39.88 47.824C43.624 45.04 46.36 42.64 48.088 40.624C49.912 38.608 50.824 36.256 50.824 33.568C50.824 31.168 49.816 29.248 47.8 27.808C45.88 26.368 43.048 25.648 39.304 25.648C35.368 25.648 31.672 26.56 28.216 28.384C24.76 30.208 21.832 32.8 19.432 36.16L1 23.92C5.416 17.584 11.512 12.544 19.288 8.79996C27.064 5.05596 35.8 3.18396 45.496 3.18396C56.056 3.18396 64.456 5.43996 70.696 9.95196C77.032 14.368 80.2 20.368 80.2 27.952C80.2 32.368 79.336 36.208 77.608 39.472C75.88 42.736 73.768 45.472 71.272 47.68C68.872 49.888 65.752 52.336 61.912 55.024C57.976 57.808 54.952 60.208 52.84 62.224C50.728 64.24 49.432 66.592 48.952 69.28H23.32ZM30.664 107.296C26.152 107.296 22.408 105.952 19.432 103.264C16.552 100.576 15.112 97.264 15.112 93.328C15.112 88.72 16.744 84.928 20.008 81.952C23.368 78.88 27.496 77.344 32.392 77.344C36.904 77.344 40.6 78.64 43.48 81.232C46.36 83.824 47.8 87.088 47.8 91.024C47.8 95.632 46.168 99.52 42.904 102.688C39.64 105.76 35.56 107.296 30.664 107.296Z" fill="#434459"/>
</svg>
