<svg width="11" height="23" viewBox="0 0 11 23" fill="none" xmlns="http://www.w3.org/2000/svg">
<path d="M3.63867 7.824H8.93067L5.90667 23H0.614672L3.63867 7.824ZM7.02667 6.144C6.11201 6.144 5.37467 5.892 4.81467 5.388C4.25467 4.884 3.97467 4.25867 3.97467 3.512C3.97467 2.63467 4.28267 1.916 4.89867 1.356C5.53334 0.777332 6.36401 0.487999 7.39067 0.487999C8.32401 0.487999 9.07067 0.730666 9.63067 1.216C10.1907 1.68267 10.4707 2.28933 10.4707 3.036C10.4707 3.95067 10.1533 4.69733 9.51867 5.276C8.88401 5.85467 8.05334 6.144 7.02667 6.144Z" fill="white"/>
</svg>
