<svg width="79" height="60" viewBox="0 0 79 60" fill="none" xmlns="http://www.w3.org/2000/svg">
<path d="M12.6987 0L0 60H4.34303L16.1448 4.05979H20.771L8.96931 60H13.3123L26.011 0H12.6987Z" fill="#0079FE"/>
<path d="M58.1586 7.88346C58.7723 5.14546 58.4418 3.11557 57.3088 1.79377C56.3175 0.660809 54.8069 0.0471191 52.8242 0.0471191H51.3136H50.5583C48.8588 0.0471191 47.0177 0.0471191 47.0177 0.0471191L34.3191 59.9999H38.6621L41.7306 45.5074H43.6189C47.8675 45.5074 50.7471 42.7694 51.8328 37.907L58.1586 7.88346ZM47.6786 37.5766C46.9233 40.9283 45.4127 41.4004 44.1853 41.4004H42.5803L50.4639 4.05971H52.3049C52.9658 4.05971 53.5323 4.20133 53.7683 4.53177C54.2404 5.00384 54.2404 6.04239 54.0044 7.55302L47.6786 37.5766Z" fill="#0079FE"/>
<path d="M38.568 0C37.0102 0 35.0275 0 34.461 0C34.3666 0 34.2722 0 34.2722 0L16.2864 60H20.6294L23.3202 51.1723H28.0881L27.0495 60H31.3926L38.7569 0C38.7569 0 38.7096 0 38.568 0ZM28.5602 47.1597H24.5476L34.2722 10.6216L28.5602 47.1597Z" fill="#0079FE"/>
<path d="M78.4581 0H73.7846L62.4549 28.0881L68.403 0H64.06L51.3613 60H55.7044L62.3605 28.5602V60H66.7508V28.1825H66.7036L78.4581 0Z" fill="#0079FE"/>
</svg>
