<svg width="25" height="25" viewBox="0 0 25 25" fill="none" xmlns="http://www.w3.org/2000/svg">
<path d="M9.39407 4.4636L11.9372 1.9205V13.1296C11.9372 13.4404 12.189 13.6922 12.4997 13.6922C12.8103 13.6922 13.0622 13.4404 13.0622 13.1296V1.9205L15.6053 4.4636C15.7151 4.5734 15.8591 4.6283 16.003 4.6283C16.1469 4.6283 16.2909 4.5734 16.4007 4.4636C16.6204 4.24384 16.6204 3.88773 16.4007 3.66805L12.8974 0.164705C12.6777 -0.0549015 12.3215 -0.0549015 12.1019 0.164705L8.5986 3.66805C8.37892 3.88781 8.37892 4.24392 8.5986 4.4636C8.8182 4.68321 9.17439 4.68321 9.39407 4.4636Z" fill="#247BFE"/>
<path d="M19.7499 6.56641H15.1264C14.8157 6.56641 14.5639 6.81819 14.5639 7.12892C14.5639 7.43966 14.8157 7.69144 15.1264 7.69144H19.1874V23.8744H5.81204V7.69144H9.87303C10.1837 7.69144 10.4355 7.43966 10.4355 7.12892C10.4355 6.81819 10.1837 6.56641 9.87303 6.56641H5.24953C4.93887 6.56641 4.68701 6.81819 4.68701 7.12892V24.4369C4.68701 24.7477 4.93887 24.9994 5.24953 24.9994H19.7499C20.0606 24.9994 20.3124 24.7477 20.3124 24.4369V7.12892C20.3124 6.81826 20.0606 6.56641 19.7499 6.56641Z" fill="#247BFE"/>
</svg>
